<svg width="8" height="14" viewBox="0 0 8 14" fill="none" xmlns="http://www.w3.org/2000/svg">
<mask id="path-1-inside-1_89_72" fill="white">
<path d="M6.72897 13.799L0.168224 7.38381C0.105919 7.32289 0.0623053 7.26197 0.0373832 7.20104C0.012461 7.14012 0 7.07311 0 7C0 6.92689 0.012461 6.85988 0.0373832 6.79896C0.0623053 6.73803 0.105919 6.67711 0.168224 6.61619L6.72897 0.201044C6.86604 0.0670149 7.0405 0 7.25234 0C7.46417 0 7.63863 0.0670149 7.7757 0.201044C7.92523 0.347259 8 0.520888 8 0.721932C8 0.922976 7.92523 1.09661 7.7757 1.24282L1.88785 7L7.7757 12.7572C7.92523 12.9034 7.99688 13.077 7.99065 13.2781C7.98442 13.4791 7.91277 13.6466 7.7757 13.7807C7.62617 13.9269 7.4486 14 7.24299 14C7.03738 14 6.86604 13.933 6.72897 13.799Z"/>
</mask>
<path d="M6.72897 13.799L0.168224 7.38381C0.105919 7.32289 0.0623053 7.26197 0.0373832 7.20104C0.012461 7.14012 0 7.07311 0 7C0 6.92689 0.012461 6.85988 0.0373832 6.79896C0.0623053 6.73803 0.105919 6.67711 0.168224 6.61619L6.72897 0.201044C6.86604 0.0670149 7.0405 0 7.25234 0C7.46417 0 7.63863 0.0670149 7.7757 0.201044C7.92523 0.347259 8 0.520888 8 0.721932C8 0.922976 7.92523 1.09661 7.7757 1.24282L1.88785 7L7.7757 12.7572C7.92523 12.9034 7.99688 13.077 7.99065 13.2781C7.98442 13.4791 7.91277 13.6466 7.7757 13.7807C7.62617 13.9269 7.4486 14 7.24299 14C7.03738 14 6.86604 13.933 6.72897 13.799Z" fill="#5D5D5D"/>
<path d="M0.168224 7.38381L2.26561 5.23882L0.168224 7.38381ZM0.168224 6.61619L2.26561 8.76118L0.168224 6.61619ZM6.72897 0.201044L4.63159 -1.94394L6.72897 0.201044ZM7.7757 1.24282L5.67832 -0.902169L7.7757 1.24282ZM1.88785 7L-0.209534 4.85501L-2.40321 7L-0.209534 9.14499L1.88785 7ZM7.7757 12.7572L5.67832 14.9022H5.67832L7.7757 12.7572ZM7.7757 13.7807L5.67832 11.6357L7.7757 13.7807ZM6.72897 13.799L4.63159 15.9439L6.72897 13.799ZM8.82636 11.654L2.26561 5.23882L-1.92916 9.5288L4.63159 15.9439L8.82636 11.654ZM2.26561 5.23882C2.40616 5.37625 2.64232 5.64542 2.81404 6.06517L-2.73927 8.33691C-2.51771 8.87851 -2.19432 9.26953 -1.92916 9.5288L2.26561 5.23882ZM2.81404 6.06517C2.95209 6.40266 3 6.7267 3 7H-3C-3 7.41951 -2.92717 7.87758 -2.73927 8.33691L2.81404 6.06517ZM3 7C3 7.2733 2.95209 7.59734 2.81404 7.93482L-2.73927 5.66309C-2.92717 6.12242 -3 6.58048 -3 7H3ZM2.81404 7.93482C2.64232 8.35458 2.40616 8.62375 2.26561 8.76118L-1.92916 4.4712C-2.19432 4.73047 -2.51771 5.12149 -2.73927 5.66309L2.81404 7.93482ZM2.26561 8.76118L8.82636 2.34603L4.63159 -1.94394L-1.92916 4.4712L2.26561 8.76118ZM8.82636 2.34603C8.61032 2.55728 8.34278 2.73382 8.03839 2.85074C7.73959 2.96553 7.46551 3 7.25234 3V-3C6.34651 -3 5.39043 -2.68595 4.63159 -1.94394L8.82636 2.34603ZM7.25234 3C7.03916 3 6.76508 2.96553 6.46628 2.85074C6.16189 2.73382 5.89436 2.55728 5.67832 2.34603L9.87309 -1.94394C9.11424 -2.68595 8.15816 -3 7.25234 -3V3ZM5.67832 2.34603C5.50313 2.17474 5.32155 1.93635 5.18853 1.62743C5.05445 1.31607 5 1.00313 5 0.721932H11C11 -0.322111 10.5738 -1.25875 9.87309 -1.94394L5.67832 2.34603ZM5 0.721932C5 0.440737 5.05445 0.127799 5.18853 -0.183563C5.32155 -0.492481 5.50313 -0.730874 5.67832 -0.902169L9.87309 3.38781C10.5738 2.70261 11 1.76597 11 0.721932H5ZM5.67832 -0.902169L-0.209534 4.85501L3.98524 9.14499L9.87309 3.38781L5.67832 -0.902169ZM-0.209534 9.14499L5.67832 14.9022L9.87309 10.6122L3.98524 4.85501L-0.209534 9.14499ZM5.67832 14.9022C5.4954 14.7233 5.30444 14.471 5.16844 14.1415C5.0313 13.8091 4.98302 13.4778 4.99209 13.1851L10.9892 13.371C11.0226 12.2937 10.5959 11.319 9.87309 10.6122L5.67832 14.9022ZM4.99209 13.1851C4.99937 12.9505 5.04803 12.6692 5.17391 12.3748C5.30091 12.0779 5.48023 11.8294 5.67832 11.6357L9.87309 15.9257C10.5938 15.2209 10.9603 14.3046 10.9892 13.371L4.99209 13.1851ZM5.67832 11.6357C5.85404 11.4639 6.09068 11.2936 6.38825 11.1711C6.6868 11.0482 6.98199 11 7.24299 11V17C8.24752 17 9.17377 16.6095 9.87309 15.9257L5.67832 11.6357ZM7.24299 11C7.4703 11 7.7519 11.0381 8.05305 11.1558C8.35816 11.2752 8.61931 11.4515 8.82636 11.654L4.63159 15.9439C5.37247 16.6684 6.31605 17 7.24299 17V11Z" fill="#CDCDCD" mask="url(#path-1-inside-1_89_72)"/>
</svg>
