<svg width="8" height="14" viewBox="0 0 8 14" fill="none" xmlns="http://www.w3.org/2000/svg">
<mask id="path-1-inside-1_89_15" fill="white">
<path d="M1.27103 0.201045L7.83178 6.61619C7.89408 6.67711 7.93769 6.73803 7.96262 6.79896C7.98754 6.85988 8 6.92689 8 7C8 7.07311 7.98754 7.14012 7.96262 7.20104C7.93769 7.26197 7.89408 7.32289 7.83178 7.38381L1.27103 13.799C1.13396 13.933 0.959502 14 0.747663 14C0.535826 14 0.361371 13.933 0.224299 13.799C0.0747666 13.6527 0 13.4791 0 13.2781C0 13.077 0.0747666 12.9034 0.224299 12.7572L6.11215 7L0.224299 1.24282C0.0747666 1.09661 0.00311518 0.922976 0.00934553 0.721932C0.0155764 0.520888 0.0872278 0.353352 0.224299 0.219321C0.373832 0.0731077 0.551402 0 0.75701 0C0.962617 0 1.13396 0.0670156 1.27103 0.201045Z"/>
</mask>
<path d="M1.27103 0.201045L7.83178 6.61619C7.89408 6.67711 7.93769 6.73803 7.96262 6.79896C7.98754 6.85988 8 6.92689 8 7C8 7.07311 7.98754 7.14012 7.96262 7.20104C7.93769 7.26197 7.89408 7.32289 7.83178 7.38381L1.27103 13.799C1.13396 13.933 0.959502 14 0.747663 14C0.535826 14 0.361371 13.933 0.224299 13.799C0.0747666 13.6527 0 13.4791 0 13.2781C0 13.077 0.0747666 12.9034 0.224299 12.7572L6.11215 7L0.224299 1.24282C0.0747666 1.09661 0.00311518 0.922976 0.00934553 0.721932C0.0155764 0.520888 0.0872278 0.353352 0.224299 0.219321C0.373832 0.0731077 0.551402 0 0.75701 0C0.962617 0 1.13396 0.0670156 1.27103 0.201045Z" fill="#5D5D5D"/>
<path d="M7.83178 6.61619L5.73439 8.76118L7.83178 6.61619ZM7.83178 7.38381L5.73439 5.23882L7.83178 7.38381ZM1.27103 13.799L3.36841 15.9439L1.27103 13.799ZM0.224299 12.7572L2.32168 14.9022L0.224299 12.7572ZM6.11215 7L8.20953 9.14499L10.4032 7L8.20953 4.85501L6.11215 7ZM0.224299 1.24282L2.32168 -0.902169H2.32168L0.224299 1.24282ZM0.224299 0.219321L2.32168 2.36431L0.224299 0.219321ZM1.27103 0.201045L3.36841 -1.94394L1.27103 0.201045ZM-0.826357 2.34603L5.73439 8.76118L9.92916 4.4712L3.36841 -1.94394L-0.826357 2.34603ZM5.73439 8.76118C5.59384 8.62375 5.35768 8.35458 5.18596 7.93483L10.7393 5.66309C10.5177 5.12149 10.1943 4.73047 9.92916 4.4712L5.73439 8.76118ZM5.18596 7.93483C5.04791 7.59734 5 7.2733 5 7H11C11 6.58049 10.9272 6.12242 10.7393 5.66309L5.18596 7.93483ZM5 7C5 6.7267 5.04791 6.40266 5.18596 6.06518L10.7393 8.33691C10.9272 7.87758 11 7.41952 11 7H5ZM5.18596 6.06518C5.35768 5.64542 5.59384 5.37625 5.73439 5.23882L9.92916 9.5288C10.1943 9.26953 10.5177 8.87851 10.7393 8.33691L5.18596 6.06518ZM5.73439 5.23882L-0.826357 11.654L3.36841 15.9439L9.92916 9.5288L5.73439 5.23882ZM-0.826357 11.654C-0.610317 11.4427 -0.342784 11.2662 -0.0383911 11.1493C0.26041 11.0345 0.534489 11 0.747663 11V17C1.65349 17 2.60957 16.6859 3.36841 15.9439L-0.826357 11.654ZM0.747663 11C0.960839 11 1.23492 11.0345 1.53372 11.1493C1.83811 11.2662 2.10564 11.4427 2.32168 11.654L-1.87309 15.9439C-1.11424 16.6859 -0.158164 17 0.747663 17V11ZM2.32168 11.654C2.49687 11.8253 2.67845 12.0637 2.81147 12.3726C2.94555 12.6839 3 12.9969 3 13.2781L-3 13.2781C-3 14.3221 -2.57383 15.2587 -1.87309 15.9439L2.32168 11.654ZM3 13.2781C3 13.5593 2.94555 13.8722 2.81147 14.1836C2.67845 14.4925 2.49687 14.7309 2.32168 14.9022L-1.87309 10.6122C-2.57383 11.2974 -3 12.234 -3 13.2781L3 13.2781ZM2.32168 14.9022L8.20953 9.14499L4.01476 4.85501L-1.87309 10.6122L2.32168 14.9022ZM8.20953 4.85501L2.32168 -0.902169L-1.87309 3.38781L4.01476 9.14499L8.20953 4.85501ZM2.32168 -0.902169C2.5046 -0.72331 2.69556 -0.471025 2.83156 -0.141454C2.9687 0.190873 3.01698 0.522152 3.00791 0.81486L-2.98921 0.629004C-3.0226 1.70628 -2.59594 2.681 -1.87309 3.38781L2.32168 -0.902169ZM3.00791 0.81486C3.00063 1.04955 2.95197 1.33082 2.82609 1.62516C2.69909 1.92211 2.51977 2.17062 2.32168 2.36431L-1.87309 -1.92567C-2.59381 -1.22093 -2.96028 -0.304633 -2.98921 0.629004L3.00791 0.81486ZM2.32168 2.36431C2.14596 2.53613 1.90932 2.7064 1.61175 2.82892C1.3132 2.95183 1.01801 3 0.75701 3V-3C-0.247524 -3 -1.17377 -2.60946 -1.87309 -1.92567L2.32168 2.36431ZM0.75701 3C0.529696 3 0.248099 2.96194 -0.0530462 2.84416C-0.358157 2.72482 -0.619309 2.54849 -0.826357 2.34603L3.36841 -1.94394C2.62753 -2.66838 1.68395 -3 0.75701 -3V3Z" fill="#CDCDCD" mask="url(#path-1-inside-1_89_15)"/>
</svg>
